<svg xmlns="http://www.w3.org/2000/svg" id="Layer_1" data-name="Layer 1" viewBox="0 0 400 400"><defs><style>.cls-1{fill:#ededed;}.cls-2{fill:#808285;}</style></defs><path d="M.05 0H400v399.95H.05z" class="cls-1"/><path d="M291.51 217.35l-15.74-7.78a73.72 73.72 0 0 0 0-23.6l15.77-7.78a3.84 3.84 0 0 0 1.75-5.15l-16.53-33.54a3.85 3.85 0 0 0-5.13-1.76l-16.08 7.84c-9.21-9.39-22.2-16.26-32.55-20v-10.9a3.84 3.84 0 0 0-3.85-3.85h-34.61a3.84 3.84 0 0 0-3.85 3.85v10.9c-10.89 3.88-24.38 10.82-33.49 20l-16.45-7.87a3.84 3.84 0 0 0-5.1 1.74L108.82 173a3.85 3.85 0 0 0 1.72 5.17l15.63 7.83a72.92 72.92 0 0 0-1 11.81 76.84 76.84 0 0 0 .91 11.79l-15.79 7.78a3.84 3.84 0 0 0-1.75 5.15L125.08 256a3.84 3.84 0 0 0 5.07 1.79l17.05-7.91c9.1 9.21 22.62 16.16 33.51 20v14.02a3.84 3.84 0 0 0 3.85 3.85h34.61a3.84 3.84 0 0 0 3.83-3.85V270c10.34-3.73 23.33-10.59 32.54-20l16 7.83a3.86 3.86 0 0 0 5.14-1.75l16.6-33.54a3.85 3.85 0 0 0-1.74-5.15zm-20.05 31.85l-15.09-7.4a3.86 3.86 0 0 0-4.58.91c-9 10.2-23.35 17.45-33.81 20.83a3.85 3.85 0 0 0-2.66 3.66v12.85h-26.93V267.2a3.85 3.85 0 0 0-2.66-3.66c-11.09-3.58-26-10.94-34.74-20.83a3.86 3.86 0 0 0-4.51-.95l-16.17 7.5-13.18-26.72 14.93-7.36a3.85 3.85 0 0 0 2.07-4.19 68.55 68.55 0 0 1-1.27-13.23 67.83 67.83 0 0 1 1.38-13.23 3.85 3.85 0 0 0-2.06-4.19L117.43 173l13.41-26.72 15.59 7.46a3.85 3.85 0 0 0 4.55-.93c8.7-9.89 23.66-17.24 34.75-20.82a3.85 3.85 0 0 0 2.66-3.66v-9.81h26.92v9.81A3.85 3.85 0 0 0 218 132c10.46 3.38 24.84 10.63 33.81 20.82a3.84 3.84 0 0 0 4.57.92l15.2-7.41L284.71 173l-14.91 7.35a3.85 3.85 0 0 0-2.07 4.19 66.74 66.74 0 0 1 0 26.45 3.85 3.85 0 0 0 2.07 4.19l14.88 7.35z" class="cls-2"/><path d="M201.53 147.17a49.51 49.51 0 0 0-47.67 63.29 3.58 3.58 0 0 0-.07.37 3.81 3.81 0 0 0 1 2.6 49.61 49.61 0 1 0 46.7-66.27zm38.47 32.9h-11.35a58.82 58.82 0 0 0-8-20.53A42.16 42.16 0 0 1 240 180.07zm3.51 16.73a41.75 41.75 0 0 1-1.3 10.19h-12.49a87.22 87.22 0 0 0 .1-19.23h12.63a41.85 41.85 0 0 1 1.02 9.04zm-83.88 0a41.86 41.86 0 0 1 1-9h12.63a87.22 87.22 0 0 0 .1 19.23h-12.47a41.75 41.75 0 0 1-1.3-10.23zm20.85 0a78.7 78.7 0 0 1 .53-9h15.11V207h-15a78.3 78.3 0 0 1-.68-10.2zm23.33-41.68c7.52 1.67 14 11.58 17 24.94h-17zm-7.69 1.27v23.67h-13.85c2.59-11.41 7.73-20.28 13.81-23.67zm0 58.29v22.53c-5.91-3.27-10.87-11.67-13.53-22.53zm7.69 23.8v-23.8h16.69c-3.13 12.78-9.43 22.18-16.73 23.8zm0-31.49v-19.23h18.31a76.61 76.61 0 0 1-.15 19.23zm-21.4-47.45a58.82 58.82 0 0 0-8 20.53h-11.32a42.16 42.16 0 0 1 19.28-20.53zm-18.73 55.14h11a58 58 0 0 0 7.74 19.39 42.15 42.15 0 0 1-18.77-19.39zm57 19.39a58 58 0 0 0 7.74-19.39h11a42.15 42.15 0 0 1-18.74 19.39z" class="cls-2"/></svg>