<svg xmlns="http://www.w3.org/2000/svg" id="Layer_1" data-name="Layer 1" viewBox="0 0 400 400"><defs><style>.cls-1{fill:#ededed;}.cls-2{fill:#808285;}</style></defs><path d="M.05 0H400v399.95H.05z" class="cls-1"/><path d="M244.2 149.3H275a3.85 3.85 0 0 0 3.85-3.85v-30.76a3.85 3.85 0 0 0-3.85-3.85h-30.8a3.85 3.85 0 0 0-3.85 3.85v11.54h-23.07a3.85 3.85 0 0 0-3.85 3.85v65.38h-48a26.53 26.53 0 0 0 3.79-21.2c-2-8.39-7.94-15.05-15.56-17.39a21.7 21.7 0 0 0-19.44 3.3 26.16 26.16 0 0 0-5.22 35.64 2.62 2.62 0 0 1 .42 2 1.29 1.29 0 0 1-.55.87c-11.92 6.61-19.84 19.33-21.18 34a7.92 7.92 0 0 0 2 6.06 7.08 7.08 0 0 0 5.27 2.36h64.31a7.08 7.08 0 0 0 5.27-2.36 7.92 7.92 0 0 0 2-6.06 43.86 43.86 0 0 0-14.93-29.58h41.82v65.38a3.85 3.85 0 0 0 3.85 3.85h23.07v11.57a3.85 3.85 0 0 0 3.85 3.85H275a3.85 3.85 0 0 0 3.85-3.85v-30.76a3.85 3.85 0 0 0-3.85-3.85h-30.8a3.85 3.85 0 0 0-3.85 3.85v11.54h-19.22v-61.54h19.23v11.54a3.85 3.85 0 0 0 3.85 3.85H275a3.85 3.85 0 0 0 3.85-3.85v-30.77a3.85 3.85 0 0 0-3.85-3.85h-30.8a3.85 3.85 0 0 0-3.85 3.85v11.54h-19.22v-61.53h19.23v11.54a3.85 3.85 0 0 0 3.84 3.84zm-65.36 84.15h-63.5c1.11-12.15 7.56-22.61 17.25-28a8.83 8.83 0 0 0 4.33-5.9 10.39 10.39 0 0 0-1.66-8.21 18.1 18.1 0 0 1-3.33-10.61 17.79 17.79 0 0 1 6.89-14.36 13.91 13.91 0 0 1 12.62-2.13c5 1.54 9 6.05 10.32 11.79a18.83 18.83 0 0 1-2.84 15.41 9.88 9.88 0 0 0-1.61 7.93 9.28 9.28 0 0 0 4.45 6.15c9.58 5.35 15.97 15.73 17.08 27.94zM248 257h23.07v23.07H248zm0-69.22h23.07v23.07H248zm0-69.22h23.07v23.07H248z" class="cls-2"/></svg>