<svg xmlns="http://www.w3.org/2000/svg" id="Layer_1" data-name="Layer 1" viewBox="0 0 400 400"><defs><style>.cls-1{fill:#ededed;}.cls-2{fill:#808285;}</style></defs><path d="M.05 0H400v399.95H.05z" class="cls-1"/><path d="M131.09 148.87a5.09 5.09 0 1 0-5.09-5.09 5.1 5.1 0 0 0 5.09 5.09zm0-7.69a2.6 2.6 0 1 1-2.6 2.6 2.6 2.6 0 0 1 2.6-2.6zm11.54 7.69a5.09 5.09 0 1 0-5.09-5.09 5.1 5.1 0 0 0 5.09 5.09zm0-7.69a2.6 2.6 0 1 1-2.6 2.6 2.6 2.6 0 0 1 2.6-2.6zm11.54 7.69a5.09 5.09 0 1 0-5.09-5.09 5.1 5.1 0 0 0 5.09 5.09zm0-7.69a2.6 2.6 0 1 1-2.6 2.6 2.6 2.6 0 0 1 2.6-2.6z" class="cls-2"/><path d="M283.69 127H118.15a7.7 7.7 0 0 0-7.69 7.69V264a7.7 7.7 0 0 0 7.69 7.69h165.54a7.7 7.7 0 0 0 7.69-7.69V134.64a7.7 7.7 0 0 0-7.69-7.64zm0 7.69v17.79H118.15v-17.84zM118.15 264V160.12H283.7V264z" class="cls-2"/><path d="M265.5 218.77c0-13.23-6.37-24.66-15.59-30.16V175.5a3.85 3.85 0 0 0-7.69 0v10.11a22.08 22.08 0 0 0-11.54.6V175.5a3.85 3.85 0 0 0-7.69 0v14.67c-7.94 5.94-13.25 16.52-13.25 28.59 0 18.55 12.51 33.65 27.88 33.65h.75s.21-.06.33-.07c14.87-.68 26.8-15.46 26.8-33.57zm-21-24.35a21.27 21.27 0 0 1 8.7 8h-31.25c3.71-5.86 9.35-9.61 15.67-9.61a16.15 16.15 0 0 1 6.92 1.6zm-27.11 24.35a32.45 32.45 0 0 1 1.21-8.75 3.62 3.62 0 0 0 .51.1h15.38v34.27c-9.63-1.93-17.07-12.67-17.07-25.62zM242.21 244v-33.89h14.42a32.47 32.47 0 0 1 1.18 8.65c-.01 12.24-6.68 22.57-15.6 25.24zm-46.15-64.65h-57.68a3.85 3.85 0 0 0 0 7.69h57.69a3.85 3.85 0 1 0 0-7.69zm0 19.23h-57.68a3.85 3.85 0 0 0 0 7.69h57.69a3.85 3.85 0 1 0 0-7.69zm0 19.22h-57.68a3.85 3.85 0 0 0 0 7.69h57.69a3.85 3.85 0 1 0 0-7.69zM173 237h-34.62a3.85 3.85 0 0 0 0 7.69H173a3.85 3.85 0 0 0 0-7.69z" class="cls-2"/></svg>